<mxfile host="app.diagrams.net" modified="2021-03-08T20:00:14.947Z" agent="5.0 (Windows)" etag="LcSvD4uNGgtcRIoKksxh" version="14.4.4" type="github">
  <diagram id="C5RBs43oDa-KdzZeNtuy" name="Page-1">
    <mxGraphModel dx="1038" dy="575" grid="1" gridSize="10" guides="1" tooltips="1" connect="1" arrows="1" fold="1" page="1" pageScale="1" pageWidth="827" pageHeight="1169" math="0" shadow="0">
      <root>
        <mxCell id="WIyWlLk6GJQsqaUBKTNV-0" />
        <mxCell id="WIyWlLk6GJQsqaUBKTNV-1" parent="WIyWlLk6GJQsqaUBKTNV-0" />
        <mxCell id="wnrKTLGXzic5pc_bKPUz-9" style="edgeStyle=orthogonalEdgeStyle;rounded=0;orthogonalLoop=1;jettySize=auto;html=1;exitX=0.5;exitY=1;exitDx=0;exitDy=0;" edge="1" parent="WIyWlLk6GJQsqaUBKTNV-1" source="wnrKTLGXzic5pc_bKPUz-1" target="wnrKTLGXzic5pc_bKPUz-3">
          <mxGeometry relative="1" as="geometry" />
        </mxCell>
        <mxCell id="wnrKTLGXzic5pc_bKPUz-1" value="Début" style="ellipse;whiteSpace=wrap;html=1;aspect=fixed;" vertex="1" parent="WIyWlLk6GJQsqaUBKTNV-1">
          <mxGeometry x="260" y="60" width="50" height="50" as="geometry" />
        </mxCell>
        <mxCell id="wnrKTLGXzic5pc_bKPUz-8" style="edgeStyle=orthogonalEdgeStyle;rounded=0;orthogonalLoop=1;jettySize=auto;html=1;exitX=0.5;exitY=1;exitDx=0;exitDy=0;entryX=0.444;entryY=0.017;entryDx=0;entryDy=0;entryPerimeter=0;" edge="1" parent="WIyWlLk6GJQsqaUBKTNV-1" source="wnrKTLGXzic5pc_bKPUz-3" target="wnrKTLGXzic5pc_bKPUz-4">
          <mxGeometry relative="1" as="geometry" />
        </mxCell>
        <mxCell id="wnrKTLGXzic5pc_bKPUz-3" value="Initialisation Arduino" style="rounded=0;whiteSpace=wrap;html=1;" vertex="1" parent="WIyWlLk6GJQsqaUBKTNV-1">
          <mxGeometry x="225" y="150" width="120" height="60" as="geometry" />
        </mxCell>
        <mxCell id="wnrKTLGXzic5pc_bKPUz-4" value="Valeur potentiomètre =&amp;gt; SensorValue" style="rounded=0;whiteSpace=wrap;html=1;" vertex="1" parent="WIyWlLk6GJQsqaUBKTNV-1">
          <mxGeometry x="225" y="250" width="135" height="60" as="geometry" />
        </mxCell>
        <mxCell id="wnrKTLGXzic5pc_bKPUz-10" style="edgeStyle=orthogonalEdgeStyle;rounded=0;orthogonalLoop=1;jettySize=auto;html=1;exitX=0.5;exitY=1;exitDx=0;exitDy=0;" edge="1" parent="WIyWlLk6GJQsqaUBKTNV-1" source="wnrKTLGXzic5pc_bKPUz-5" target="wnrKTLGXzic5pc_bKPUz-6">
          <mxGeometry relative="1" as="geometry" />
        </mxCell>
        <mxCell id="wnrKTLGXzic5pc_bKPUz-5" value="Voltage = SensorValue * (5.0 / 1023.0)" style="rounded=0;whiteSpace=wrap;html=1;" vertex="1" parent="WIyWlLk6GJQsqaUBKTNV-1">
          <mxGeometry x="225" y="350" width="135" height="60" as="geometry" />
        </mxCell>
        <mxCell id="wnrKTLGXzic5pc_bKPUz-15" style="edgeStyle=orthogonalEdgeStyle;rounded=0;orthogonalLoop=1;jettySize=auto;html=1;exitX=0.5;exitY=1;exitDx=0;exitDy=0;entryX=0.5;entryY=0;entryDx=0;entryDy=0;" edge="1" parent="WIyWlLk6GJQsqaUBKTNV-1" source="wnrKTLGXzic5pc_bKPUz-6" target="wnrKTLGXzic5pc_bKPUz-11">
          <mxGeometry relative="1" as="geometry" />
        </mxCell>
        <mxCell id="wnrKTLGXzic5pc_bKPUz-6" value="Température = Voltage * 7 " style="rounded=0;whiteSpace=wrap;html=1;" vertex="1" parent="WIyWlLk6GJQsqaUBKTNV-1">
          <mxGeometry x="225" y="450" width="135" height="60" as="geometry" />
        </mxCell>
        <mxCell id="wnrKTLGXzic5pc_bKPUz-7" value="" style="endArrow=classic;html=1;exitX=0.5;exitY=1;exitDx=0;exitDy=0;" edge="1" parent="WIyWlLk6GJQsqaUBKTNV-1" source="wnrKTLGXzic5pc_bKPUz-4" target="wnrKTLGXzic5pc_bKPUz-5">
          <mxGeometry width="50" height="50" relative="1" as="geometry">
            <mxPoint x="350" y="580" as="sourcePoint" />
            <mxPoint x="400" y="530" as="targetPoint" />
          </mxGeometry>
        </mxCell>
        <mxCell id="wnrKTLGXzic5pc_bKPUz-14" style="edgeStyle=orthogonalEdgeStyle;rounded=0;orthogonalLoop=1;jettySize=auto;html=1;exitX=0.5;exitY=1;exitDx=0;exitDy=0;entryX=0.5;entryY=0.088;entryDx=0;entryDy=0;entryPerimeter=0;" edge="1" parent="WIyWlLk6GJQsqaUBKTNV-1" source="wnrKTLGXzic5pc_bKPUz-11" target="wnrKTLGXzic5pc_bKPUz-12">
          <mxGeometry relative="1" as="geometry" />
        </mxCell>
        <mxCell id="wnrKTLGXzic5pc_bKPUz-11" value="Fonction : Servo" style="shape=process;whiteSpace=wrap;html=1;backgroundOutline=1;" vertex="1" parent="WIyWlLk6GJQsqaUBKTNV-1">
          <mxGeometry x="232.5" y="554.5" width="120" height="60" as="geometry" />
        </mxCell>
        <mxCell id="wnrKTLGXzic5pc_bKPUz-16" style="edgeStyle=orthogonalEdgeStyle;rounded=0;orthogonalLoop=1;jettySize=auto;html=1;exitX=0.5;exitY=1;exitDx=0;exitDy=0;" edge="1" parent="WIyWlLk6GJQsqaUBKTNV-1" source="wnrKTLGXzic5pc_bKPUz-12" target="wnrKTLGXzic5pc_bKPUz-13">
          <mxGeometry relative="1" as="geometry" />
        </mxCell>
        <mxCell id="wnrKTLGXzic5pc_bKPUz-17" style="edgeStyle=orthogonalEdgeStyle;rounded=0;orthogonalLoop=1;jettySize=auto;html=1;exitX=0;exitY=0.5;exitDx=0;exitDy=0;" edge="1" parent="WIyWlLk6GJQsqaUBKTNV-1" source="wnrKTLGXzic5pc_bKPUz-12">
          <mxGeometry relative="1" as="geometry">
            <mxPoint x="290" y="240" as="targetPoint" />
            <Array as="points">
              <mxPoint x="100" y="710" />
              <mxPoint x="100" y="240" />
              <mxPoint x="190" y="240" />
            </Array>
          </mxGeometry>
        </mxCell>
        <mxCell id="wnrKTLGXzic5pc_bKPUz-12" value="1 = 1 ?" style="rhombus;whiteSpace=wrap;html=1;" vertex="1" parent="WIyWlLk6GJQsqaUBKTNV-1">
          <mxGeometry x="253" y="670" width="80" height="80" as="geometry" />
        </mxCell>
        <mxCell id="wnrKTLGXzic5pc_bKPUz-13" value="Fin " style="ellipse;whiteSpace=wrap;html=1;aspect=fixed;" vertex="1" parent="WIyWlLk6GJQsqaUBKTNV-1">
          <mxGeometry x="252.5" y="800" width="80" height="80" as="geometry" />
        </mxCell>
        <mxCell id="wnrKTLGXzic5pc_bKPUz-19" value="Oui" style="text;html=1;strokeColor=none;fillColor=none;align=center;verticalAlign=middle;whiteSpace=wrap;rounded=0;" vertex="1" parent="WIyWlLk6GJQsqaUBKTNV-1">
          <mxGeometry x="213" y="690" width="40" height="20" as="geometry" />
        </mxCell>
        <mxCell id="wnrKTLGXzic5pc_bKPUz-20" value="Non" style="text;html=1;strokeColor=none;fillColor=none;align=center;verticalAlign=middle;whiteSpace=wrap;rounded=0;" vertex="1" parent="WIyWlLk6GJQsqaUBKTNV-1">
          <mxGeometry x="253" y="750" width="40" height="20" as="geometry" />
        </mxCell>
      </root>
    </mxGraphModel>
  </diagram>
</mxfile>
